<?xml version="1.0" encoding="UTF-8"?>
<svg xmlns="http://www.w3.org/2000/svg" xmlns:xlink="http://www.w3.org/1999/xlink" viewBox="0 0 128 128" width="128px" height="128px">
<g id="surface31649529">
<path style=" stroke:none;fill-rule:nonzero;fill:rgb(100%,100%,100%);fill-opacity:1;" d="M 84 16 L 100 16 L 100 32 L 84 32 Z M 100 91.015625 C 100 96.414062 98.730469 114.210938 83.03125 119.613281 L 68 112 C 79.222656 107.105469 84 99.199219 84 91.015625 C 84 79.703125 84 44 84 44 L 100 44.007812 C 100 44.007812 100 78.859375 100 91.015625 Z M 56 16 L 56 41.207031 C 54.125 40.445312 50.078125 40.296875 48.089844 40.296875 C 33.09375 40.296875 20 48.042969 20 68 C 20 91.875 38.015625 95.988281 50.601562 95.988281 C 55.566406 95.988281 66.601562 95.5 72 93.9375 L 72 16 Z M 50.4375 82.664062 C 43.359375 82.664062 36 79.453125 36 68 C 36 56.546875 43.359375 54.125 50.4375 54.125 C 52.164062 54.125 54.109375 54.449219 56 54.878906 L 56 81.90625 C 54.113281 82.335938 52.167969 82.664062 50.4375 82.664062 Z M 50.4375 82.664062 "/>
</g>
</svg>
