<?xml version="1.0" encoding="UTF-8"?>
<svg xmlns="http://www.w3.org/2000/svg" xmlns:xlink="http://www.w3.org/1999/xlink" viewBox="0 0 128 128" width="128px" height="128px">
<g id="surface31647842">
<path style=" stroke:none;fill-rule:nonzero;fill:rgb(100%,100%,100%);fill-opacity:1;" d="M 64 6 C 32.019531 6 6 32.019531 6 64 C 6 95.980469 32.019531 122 64 122 C 95.980469 122 122 95.980469 122 64 C 122 32.019531 95.980469 6 64 6 Z M 64 10 C 93.777344 10 118 34.222656 118 64 C 118 93.777344 93.777344 118 64 118 C 34.222656 118 10 93.777344 10 64 C 10 34.222656 34.222656 10 64 10 Z M 64 18 C 38.632812 18 18 38.636719 18 64 C 18 65.105469 18.894531 66 20 66 C 21.105469 66 22 65.105469 22 64 C 22 40.839844 40.84375 22 64 22 C 87.15625 22 106 40.839844 106 64 C 106 87.160156 87.15625 106 64 106 C 62.894531 106 62 106.894531 62 108 C 62 109.105469 62.894531 110 64 110 C 89.367188 110 110 89.363281 110 64 C 110 38.636719 89.367188 18 64 18 Z M 82.734375 40.050781 C 81.964844 39.976562 81.121094 40.101562 80.269531 40.4375 C 78.796875 41.019531 38.789062 57.886719 37.21875 58.554688 C 35.574219 59.113281 33.753906 60.527344 34.023438 62.660156 C 34.328125 65.085938 36.859375 66.046875 37.175781 66.160156 L 46.925781 69.445312 C 47.742188 72.128906 49.984375 79.472656 50.507812 81.113281 C 50.769531 81.9375 51.425781 84.015625 52.949219 84.484375 C 54.113281 84.90625 55.265625 84.503906 56.042969 83.902344 L 61.738281 78.710938 L 71.210938 85.972656 L 71.628906 86.21875 C 72.492188 86.59375 73.261719 86.730469 73.921875 86.730469 C 74.625 86.730469 75.203125 86.578125 75.640625 86.398438 C 77.457031 85.652344 78.1875 83.945312 78.265625 83.753906 L 85.800781 45.316406 C 86.351562 42.859375 85.535156 41.546875 84.75 40.875 C 84.199219 40.402344 83.503906 40.125 82.734375 40.050781 Z M 81.964844 44.078125 C 81.949219 44.191406 81.929688 44.332031 81.890625 44.496094 L 74.503906 82.347656 C 74.429688 82.453125 74.292969 82.632812 74.128906 82.699219 C 73.929688 82.777344 73.648438 82.710938 73.425781 82.632812 L 61.515625 73.496094 L 54.371094 80.023438 L 55.878906 70.429688 C 55.878906 70.429688 74.390625 53.171875 75.1875 52.429688 C 75.984375 51.6875 75.71875 51.527344 75.71875 51.527344 C 75.773438 50.625 74.515625 51.269531 74.515625 51.269531 L 50.160156 66.351562 L 50.148438 66.308594 L 38.507812 62.390625 C 38.488281 62.382812 38.46875 62.375 38.449219 62.367188 C 38.511719 62.339844 38.578125 62.3125 38.644531 62.289062 C 53.035156 56.222656 80.539062 44.628906 81.734375 44.15625 C 81.816406 44.121094 81.894531 44.097656 81.964844 44.078125 Z M 24.007812 74.070312 C 23.75 74.042969 23.480469 74.0625 23.214844 74.144531 L 19.382812 75.292969 C 18.324219 75.609375 17.726562 76.722656 18.042969 77.78125 C 18.304688 78.648438 19.09375 79.210938 19.957031 79.210938 C 20.144531 79.210938 20.339844 79.183594 20.53125 79.125 L 24.363281 77.976562 C 25.421875 77.660156 26.023438 76.539062 25.707031 75.484375 C 25.46875 74.691406 24.78125 74.15625 24.007812 74.070312 Z M 27.65625 83.523438 C 27.398438 83.558594 27.144531 83.648438 26.910156 83.789062 L 23.476562 85.84375 C 22.527344 86.410156 22.21875 87.636719 22.785156 88.585938 C 23.160156 89.210938 23.820312 89.558594 24.503906 89.558594 C 24.855469 89.558594 25.207031 89.472656 25.527344 89.277344 L 28.960938 87.222656 C 29.910156 86.65625 30.21875 85.429688 29.652344 84.480469 C 29.226562 83.769531 28.425781 83.414062 27.65625 83.523438 Z M 34.269531 91.664062 C 33.757812 91.664062 33.246094 91.855469 32.855469 92.246094 L 30.023438 95.074219 C 29.238281 95.855469 29.238281 97.121094 30.019531 97.902344 C 30.410156 98.292969 30.921875 98.488281 31.4375 98.488281 C 31.949219 98.488281 32.457031 98.292969 32.847656 97.90625 L 35.679688 95.078125 C 36.464844 94.296875 36.464844 93.035156 35.683594 92.253906 C 35.292969 91.863281 34.78125 91.664062 34.269531 91.664062 Z M 42.6875 98.035156 C 41.914062 97.925781 41.117188 98.273438 40.691406 98.984375 L 38.632812 102.414062 C 38.066406 103.363281 38.367188 104.589844 39.316406 105.15625 C 39.636719 105.351562 39.996094 105.445312 40.347656 105.445312 C 41.027344 105.445312 41.6875 105.097656 42.0625 104.472656 L 44.121094 101.046875 C 44.6875 100.097656 44.386719 98.867188 43.4375 98.300781 C 43.199219 98.160156 42.945312 98.070312 42.6875 98.035156 Z M 51.632812 102.195312 C 50.855469 102.277344 50.171875 102.8125 49.933594 103.605469 L 48.777344 107.433594 C 48.457031 108.492188 49.058594 109.609375 50.113281 109.929688 C 50.308594 109.988281 50.5 110.015625 50.691406 110.015625 C 51.550781 110.015625 52.34375 109.457031 52.605469 108.59375 L 53.761719 104.761719 C 54.082031 103.703125 53.480469 102.589844 52.425781 102.269531 C 52.160156 102.191406 51.890625 102.167969 51.632812 102.195312 Z M 51.632812 102.195312 "/>
</g>
</svg>
