<svg fill="#ffffff" xmlns="http://www.w3.org/2000/svg"  viewBox="0 0 50 50" width="50px" height="50px"><path fill="none" stroke="#ffffff" stroke-miterlimit="10" stroke-width="2" d="M45.015,44H4.985C3.889,44,3,43.111,3,42.015V7.985C3,6.889,3.889,6,4.985,6h40.03C46.111,6,47,6.889,47,7.985v34.03C47,43.111,46.111,44,45.015,44z"/><path d="M7 8A1 1 0 1 0 7 10 1 1 0 1 0 7 8zM10 8A1 1 0 1 0 10 10 1 1 0 1 0 10 8z"/><path fill="none" stroke="#ffffff" stroke-miterlimit="10" stroke-width="2" d="M3 12L47 12M3 28L47 28M25 44L25 28M6 32L22 32M6 36L22 36M6 40L15 40"/></svg>