<?xml version="1.0" encoding="UTF-8"?>
<svg xmlns="http://www.w3.org/2000/svg" xmlns:xlink="http://www.w3.org/1999/xlink" viewBox="0 0 80 80" width="80px" height="80px">
<g id="surface136446505">
<path style=" stroke:none;fill-rule:nonzero;fill:rgb(100%,100%,100%);fill-opacity:1;" d="M 9 14 C 7.355469 14 6 15.355469 6 17 L 6 63 C 6 64.644531 7.355469 66 9 66 L 71 66 C 72.644531 66 74 64.644531 74 63 L 74 17 C 74 15.355469 72.644531 14 71 14 Z M 9 16 L 71 16 C 71.566406 16 72 16.433594 72 17 L 72 22 L 8 22 L 8 17 C 8 16.433594 8.433594 16 9 16 Z M 11 18 C 10.449219 18 10 18.449219 10 19 C 10 19.550781 10.449219 20 11 20 C 11.550781 20 12 19.550781 12 19 C 12 18.449219 11.550781 18 11 18 Z M 15 18 C 14.449219 18 14 18.449219 14 19 C 14 19.550781 14.449219 20 15 20 C 15.550781 20 16 19.550781 16 19 C 16 18.449219 15.550781 18 15 18 Z M 8 24 L 72 24 L 72 27 C 71.449219 27 71 27.449219 71 28 C 71 28.550781 71.449219 29 72 29 L 72 46 L 8 46 Z M 12 27 C 11.449219 27 11 27.449219 11 28 C 11 28.550781 11.449219 29 12 29 C 12.550781 29 13 28.550781 13 28 C 13 27.449219 12.550781 27 12 27 Z M 16 27 C 15.449219 27 15 27.449219 15 28 C 15 28.550781 15.449219 29 16 29 C 16.550781 29 17 28.550781 17 28 C 17 27.449219 16.550781 27 16 27 Z M 20 27 C 19.449219 27 19 27.449219 19 28 C 19 28.550781 19.449219 29 20 29 C 20.550781 29 21 28.550781 21 28 C 21 27.449219 20.550781 27 20 27 Z M 24 27 C 23.449219 27 23 27.449219 23 28 C 23 28.550781 23.449219 29 24 29 C 24.550781 29 25 28.550781 25 28 C 25 27.449219 24.550781 27 24 27 Z M 28 27 C 27.449219 27 27 27.449219 27 28 C 27 28.550781 27.449219 29 28 29 C 28.550781 29 29 28.550781 29 28 C 29 27.449219 28.550781 27 28 27 Z M 32 27 C 31.449219 27 31 27.449219 31 28 C 31 28.550781 31.449219 29 32 29 C 32.550781 29 33 28.550781 33 28 C 33 27.449219 32.550781 27 32 27 Z M 36 27 C 35.449219 27 35 27.449219 35 28 C 35 28.550781 35.449219 29 36 29 C 36.550781 29 37 28.550781 37 28 C 37 27.449219 36.550781 27 36 27 Z M 40 27 C 39.449219 27 39 27.449219 39 28 C 39 28.550781 39.449219 29 40 29 C 40.550781 29 41 28.550781 41 28 C 41 27.449219 40.550781 27 40 27 Z M 44 27 C 43.449219 27 43 27.449219 43 28 C 43 28.550781 43.449219 29 44 29 C 44.550781 29 45 28.550781 45 28 C 45 27.449219 44.550781 27 44 27 Z M 48 27 C 47.449219 27 47 27.449219 47 28 C 47 28.550781 47.449219 29 48 29 C 48.550781 29 49 28.550781 49 28 C 49 27.449219 48.550781 27 48 27 Z M 52 27 C 51.449219 27 51 27.449219 51 28 C 51 28.550781 51.449219 29 52 29 C 52.550781 29 53 28.550781 53 28 C 53 27.449219 52.550781 27 52 27 Z M 56 27 C 55.449219 27 55 27.449219 55 28 C 55 28.550781 55.449219 29 56 29 C 56.550781 29 57 28.550781 57 28 C 57 27.449219 56.550781 27 56 27 Z M 60 27 C 59.449219 27 59 27.449219 59 28 C 59 28.550781 59.449219 29 60 29 C 60.550781 29 61 28.550781 61 28 C 61 27.449219 60.550781 27 60 27 Z M 64 27 C 63.449219 27 63 27.449219 63 28 C 63 28.550781 63.449219 29 64 29 C 64.550781 29 65 28.550781 65 28 C 65 27.449219 64.550781 27 64 27 Z M 68 27 C 67.449219 27 67 27.449219 67 28 C 67 28.550781 67.449219 29 68 29 C 68.550781 29 69 28.550781 69 28 C 69 27.449219 68.550781 27 68 27 Z M 12 31 C 11.449219 31 11 31.449219 11 32 C 11 32.550781 11.449219 33 12 33 C 12.550781 33 13 32.550781 13 32 C 13 31.449219 12.550781 31 12 31 Z M 12 35 C 11.449219 35 11 35.449219 11 36 C 11 36.550781 11.449219 37 12 37 C 12.550781 37 13 36.550781 13 36 C 13 35.449219 12.550781 35 12 35 Z M 12 39 C 11.449219 39 11 39.449219 11 40 C 11 40.550781 11.449219 41 12 41 C 12.550781 41 13 40.550781 13 40 C 13 39.449219 12.550781 39 12 39 Z M 12 43 C 11.449219 43 11 43.449219 11 44 C 11 44.550781 11.449219 45 12 45 C 12.550781 45 13 44.550781 13 44 C 13 43.449219 12.550781 43 12 43 Z M 8 48 L 39 48 L 39 64 L 9 64 C 8.433594 64 8 63.566406 8 63 Z M 41 48 L 72 48 L 72 63 C 72 63.566406 71.566406 64 71 64 L 41 64 Z M 12 51 C 11.449219 51 11 51.449219 11 52 C 11 52.550781 11.449219 53 12 53 C 12.550781 53 13 52.550781 13 52 C 13 51.449219 12.550781 51 12 51 Z M 16 51 C 15.449219 51 15 51.449219 15 52 C 15 52.550781 15.449219 53 16 53 C 16.550781 53 17 52.550781 17 52 C 17 51.449219 16.550781 51 16 51 Z M 20 51 C 19.972656 51 19.945312 51 19.921875 51.003906 C 19.390625 51.050781 18.988281 51.507812 19.011719 52.039062 C 19.03125 52.574219 19.46875 52.996094 20 53 L 35 53 C 35.359375 53.003906 35.695312 52.816406 35.878906 52.503906 C 36.058594 52.191406 36.058594 51.808594 35.878906 51.496094 C 35.695312 51.183594 35.359375 50.996094 35 51 Z M 12 55 C 11.640625 54.996094 11.304688 55.183594 11.121094 55.496094 C 10.941406 55.808594 10.941406 56.191406 11.121094 56.503906 C 11.304688 56.816406 11.640625 57.003906 12 57 L 27 57 C 27.027344 57 27.054688 57 27.078125 56.996094 C 27.609375 56.949219 28.011719 56.492188 27.988281 55.960938 C 27.96875 55.425781 27.53125 55.003906 27 55 Z M 31 55 C 30.449219 55 30 55.449219 30 56 C 30 56.550781 30.449219 57 31 57 C 31.550781 57 32 56.550781 32 56 C 32 55.449219 31.550781 55 31 55 Z M 35 55 C 34.449219 55 34 55.449219 34 56 C 34 56.550781 34.449219 57 35 57 C 35.550781 57 36 56.550781 36 56 C 36 55.449219 35.550781 55 35 55 Z M 12 59 C 11.640625 58.996094 11.304688 59.183594 11.121094 59.496094 C 10.941406 59.808594 10.941406 60.191406 11.121094 60.503906 C 11.304688 60.816406 11.640625 61.003906 12 61 L 25 61 C 25.359375 61.003906 25.695312 60.816406 25.878906 60.503906 C 26.058594 60.191406 26.058594 59.808594 25.878906 59.496094 C 25.695312 59.183594 25.359375 58.996094 25 59 Z M 12 59 "/>
</g>
</svg>
